<svg width="199" height="38" viewBox="0 0 199 38" fill="none" xmlns="http://www.w3.org/2000/svg">
<g clip-path="url(#clip0)">
<path d="M89.7849 30.5385C88.8945 29.2762 88.4524 27.7627 88.5268 26.2308V19.8461C88.419 18.2977 88.8333 16.7575 89.7063 15.4615C90.5716 14.4615 91.9079 14 93.8741 14C95.8402 14 97.0979 14.4615 97.8839 15.3077C98.7376 16.3794 99.1575 17.7214 99.064 19.0769V20.6154H95.2103V18.8461C95.2422 18.3229 95.1616 17.799 94.9745 17.3077C94.875 17.1094 94.7168 16.9448 94.5208 16.8351C94.3248 16.7255 94.0989 16.6757 93.8741 16.6923C93.3238 16.6923 92.9308 16.8462 92.7726 17.2308C92.5955 17.7773 92.5149 18.3499 92.5368 18.9231V27.1538C92.496 27.71 92.6044 28.267 92.8512 28.7692C93.0094 29.1538 93.4024 29.3077 93.9527 29.3077C94.5029 29.3077 94.8173 29.1538 94.9745 28.7692C95.1536 28.2494 95.2332 27.7019 95.2103 27.1538V25.3077H99.064V26.8462C99.1436 28.2238 98.7267 29.5852 97.8839 30.6923C97.0979 31.6154 95.7616 32.0769 93.8741 32.0769C91.9865 32 90.5717 31.5385 89.7849 30.5385Z" fill="#111111"/>
<path d="M103.704 14.2308H108.185L111.489 31.7692H107.871L107.242 28.0769H104.647L104.018 31.7692H100.322L103.704 14.2308ZM106.927 25.7692L105.983 18.9231L105.04 25.7692H106.927Z" fill="#111111"/>
<path d="M114.241 17.1539H111.567V14.2308H120.924V17.0769H118.251V31.7692H114.241V17.1539Z" fill="#111111"/>
<path d="M128.08 14.2308H134.999V16.0769H130.518V21.8461H134.135V23.6154H130.518V30.0769H134.999V31.8462H128.002V14.2308H128.08Z" fill="#111111"/>
<path d="M137.044 14.2308H138.774L143.886 25.8462V14.2308H145.93V31.7692H144.357L139.167 19.7692V31.7692H137.044V14.2308Z" fill="#111111"/>
<path d="M148.289 14.2308H155.209V16.0769H150.726V21.8461H154.344V23.6154H150.726V30.0769H155.209V31.8462H148.289V14.2308Z" fill="#111111"/>
<path d="M157.254 14.2308H160.87C162.293 14.1346 163.708 14.5144 164.881 15.3077C165.746 16 166.139 17.2308 166.139 18.8461C166.139 21.0769 165.431 22.4615 163.937 22.9231L166.453 31.6923H164.016L161.657 23.4615H159.691V31.6923H157.175V14.2308H157.254ZM160.713 21.7692C161.524 21.8346 162.332 21.6165 162.994 21.1538C163.465 20.7692 163.701 20 163.701 18.8461C163.723 18.273 163.643 17.7004 163.465 17.1538C163.288 16.7616 162.985 16.4373 162.601 16.2308C162.059 15.9893 161.464 15.8836 160.87 15.9231H159.77V21.6923H160.713V21.7692Z" fill="#111111"/>
<path d="M169.284 30.4615C168.467 29.1166 168.083 27.5617 168.184 26V20.1538C168.164 19.0391 168.296 17.9268 168.577 16.8462C168.84 16.0386 169.365 15.3367 170.071 14.8462C170.949 14.3377 171.962 14.0967 172.981 14.1538C174.631 14.1538 175.811 14.5385 176.519 15.3846C177.333 16.5019 177.723 17.8624 177.62 19.2308V19.8462H175.261V19.3077C175.264 18.6635 175.211 18.0201 175.104 17.3846C175.037 16.983 174.811 16.6235 174.474 16.3846C174.032 16.1008 173.508 15.9658 172.981 16C172.416 15.9647 171.858 16.1284 171.407 16.4615C171.222 16.614 171.071 16.8018 170.964 17.0134C170.855 17.2251 170.793 17.4561 170.779 17.6923C170.675 18.38 170.622 19.0741 170.621 19.7692V26.3077C170.564 27.3038 170.724 28.3006 171.093 29.2308C171.407 29.8462 172.036 30.0769 172.981 30.0769C173.353 30.1223 173.731 30.0589 174.067 29.8947C174.402 29.7304 174.681 29.4727 174.867 29.1538C175.283 28.1811 175.471 27.1299 175.418 26.0769V24.8462H173.138V23.0769H177.699V31.7692H176.126L175.89 29.7692C175.684 30.4395 175.254 31.0231 174.67 31.4273C174.086 31.8315 173.381 32.0331 172.666 32C172.016 32.0374 171.367 31.9164 170.777 31.6479C170.187 31.3794 169.674 30.9717 169.284 30.4615Z" fill="#111111"/>
<path d="M182.731 25.6154L178.878 14.3077H181.237L183.989 22.7692L186.663 14.3077H189.022L185.168 25.6154V31.7692H182.809V25.6154H182.731Z" fill="#111111"/>
<path d="M6.03205 20.72V18.46C12.6822 17.5423 19.3886 17.0979 26.1012 17.13C26.1012 17.73 26.1012 18.34 26.0415 18.95C27.9495 18.099 29.9546 17.4877 32.0115 17.13C30.7006 13.722 28.3118 10.8412 25.2128 8.93087C22.1136 7.02052 18.4759 6.1864 14.8591 6.55683C11.2423 6.92727 7.84672 8.48172 5.19478 10.9811C2.54284 13.4804 0.781405 16.7863 0.181452 20.39L6.03205 20.72Z" fill="#FDC305"/>
<path d="M27.1038 24.23C25.9496 25.51 25.7208 25.43 25.7208 27.68C25.7208 28.59 25.7208 32.58 25.7208 36.86C28.0018 35.346 29.8744 33.2879 31.1714 30.8694C32.4683 28.4509 33.1492 25.7474 33.1534 23C33.1403 21.9591 33.0337 20.9216 32.835 19.9C30.7736 21.1295 28.8517 22.5814 27.1038 24.23Z" fill="#FDC305"/>
<path d="M6.3282 25.72C6.3282 25.72 2.55715 24.28 1.16415 23.89C0.783131 23.7693 0.394116 23.6757 0 23.61C0.107853 26.496 0.96076 29.3041 2.47495 31.7586C3.98914 34.2131 6.11254 36.2296 8.6366 37.61L6.3282 25.72Z" fill="#FDC305"/>
<path d="M26.1586 17.12C26.199 11.5986 25.7327 6.08528 24.7656 0.65C24.7656 0.65 24.6263 -0.64 23.88 0.41C23.2938 1.65814 22.8917 2.98539 22.686 4.35C18.4491 4.07577 14.1962 4.18957 9.97985 4.69C9.1938 2 7.81075 0.75 7.1441 1C6.47745 1.25 6.4277 4.31 6.4277 4.31L6.09935 18.41C12.7472 17.506 19.4503 17.0749 26.1586 17.12Z" fill="#F06351"/>
<path d="M12.3479 14C12.3479 13.91 13.3429 14.68 13.7509 14.92C14.1588 15.16 14.3579 15.34 14.3579 15.51C14.3579 15.68 14.0892 15.85 13.731 15.85C13.3728 15.85 12.8255 15.73 12.736 15.58H13.6713H13.9598C13.3536 15.1294 12.8113 14.5978 12.3479 14Z" fill="black"/>
<path d="M19.7906 14.11L18.706 15.44C18.706 15.5 18.5369 15.79 18.8851 15.74C19.2972 15.6783 19.7033 15.5812 20.099 15.45C20.2085 15.45 20.1687 15.26 19.9896 15.28C19.8105 15.3 19.303 15.33 18.9946 15.39L19.8304 14.13C19.8304 14.13 19.9 14 19.7906 14.11Z" fill="black"/>
<path d="M16.6663 20.2C17.1274 19.9958 17.5087 19.6443 17.7508 19.2C18.0294 18.55 17.7508 18.29 17.313 18.2C16.7139 18.0902 16.0956 18.2116 15.5817 18.54C15.1937 18.9 15.2434 19.26 15.532 19.54C15.8815 19.8062 16.2625 20.0279 16.6663 20.2Z" fill="black"/>
<path d="M16.2682 21.45C16.1567 21.6785 16.0012 21.8825 15.8105 22.05C15.5272 22.2791 15.1788 22.4122 14.8156 22.43C14.292 22.472 13.7714 22.3189 13.3529 22C13.1561 21.8808 12.9784 21.7324 12.8256 21.56C12.7256 21.4491 12.6036 21.3605 12.4674 21.3C12.4674 21.3 13.2136 25.4 15.0245 26.05C16.8354 26.7 17.1538 25.3 17.2135 24.92C17.2733 23.7851 16.9888 22.6588 16.3976 21.69C16.3777 21.38 16.3677 21.58 16.2682 21.45Z" fill="#F06351"/>
<path d="M14.6365 22.59C14.1741 22.5247 13.7299 22.3651 13.3312 22.1209C12.9325 21.8767 12.5877 21.5531 12.3181 21.17C12.3049 21.157 12.2943 21.1414 12.2872 21.1242C12.28 21.1071 12.2763 21.0886 12.2763 21.07C12.2763 21.0514 12.28 21.0329 12.2872 21.0158C12.2943 20.9986 12.3049 20.983 12.3181 20.97C12.331 20.9567 12.3466 20.9461 12.3637 20.9389C12.3807 20.9317 12.3991 20.928 12.4176 20.928C12.4361 20.928 12.4545 20.9317 12.4715 20.9389C12.4886 20.9461 12.5042 20.9567 12.5171 20.97C13.0194 21.6642 13.7738 22.1313 14.6166 22.27C14.9466 22.245 15.2659 22.1413 15.548 21.9674C15.8301 21.7934 16.0668 21.5544 16.2384 21.27L16.3777 21.08L16.4772 21.29C16.4772 21.29 16.8454 22.05 17.4722 22.09C18.0991 22.13 18.517 21.68 19.0742 20.81C19.0871 20.7967 19.1026 20.7861 19.1197 20.7789C19.1367 20.7717 19.1551 20.768 19.1737 20.768C19.1922 20.768 19.2106 20.7717 19.2276 20.7789C19.2447 20.7861 19.2602 20.7967 19.2732 20.81C19.3053 20.8306 19.3284 20.8629 19.3376 20.9C19.3469 20.9372 19.3416 20.9766 19.3229 21.01C18.6861 22.01 18.0593 22.45 17.4523 22.41C17.2215 22.3763 17.0013 22.2904 16.8082 22.1587C16.6152 22.0271 16.4544 21.8531 16.3379 21.65C16.1422 21.9245 15.8878 22.1514 15.5933 22.3141C15.2989 22.4767 14.9719 22.571 14.6365 22.59Z" fill="black"/>
<path d="M26.1088 18.92C24.3223 20.5437 22.6374 22.277 21.0641 24.11C19.5006 25.9361 17.7347 27.5768 15.8006 29C15.5817 28.47 14.1887 27.49 14.1887 27.49C14.1887 27.49 11.0744 25.35 9.0346 23.67C7.93427 22.7373 6.89406 21.7353 5.92025 20.67L3.93025 20.56C6.80598 24.7655 11.0148 27.8676 15.8703 29.36C16.726 29.22 19.1239 27.5 20.9149 26.1C23.0232 24.2819 24.9984 22.3134 26.8252 20.21C27.3252 19.621 27.7101 18.9425 27.9595 18.21C26.865 18.6 26.1088 18.92 26.1088 18.92Z" fill="#F06351"/>
</g>
<defs>
<clipPath id="clip0">
<rect width="199" height="38" fill="white"/>
</clipPath>
</defs>
</svg>
