<svg width="199" height="38" viewBox="0 0 199 38" fill="none" xmlns="http://www.w3.org/2000/svg">
<g clip-path="url(#clip0)">
<path d="M98.7849 32.5385C97.8945 31.2762 97.4524 29.7627 97.5268 28.2308V21.8461C97.419 20.2977 97.8333 18.7575 98.7063 17.4615C99.5716 16.4615 100.908 16 102.874 16C104.84 16 106.098 16.4615 106.884 17.3077C107.738 18.3794 108.158 19.7214 108.064 21.0769V22.6154H104.21V20.8461C104.242 20.3229 104.162 19.799 103.975 19.3077C103.875 19.1094 103.717 18.9448 103.521 18.8351C103.325 18.7255 103.099 18.6757 102.874 18.6923C102.324 18.6923 101.931 18.8462 101.773 19.2308C101.595 19.7773 101.515 20.3499 101.537 20.9231V29.1538C101.496 29.71 101.604 30.267 101.851 30.7692C102.009 31.1538 102.402 31.3077 102.953 31.3077C103.503 31.3077 103.817 31.1538 103.975 30.7692C104.154 30.2494 104.233 29.7019 104.21 29.1538V27.3077H108.064V28.8462C108.144 30.2238 107.727 31.5852 106.884 32.6923C106.098 33.6154 104.762 34.0769 102.874 34.0769C100.987 34 99.5717 33.5385 98.7849 32.5385Z" fill="#111111"/>
<path d="M112.704 16.2308H117.185L120.489 33.7692H116.871L116.242 30.0769H113.647L113.018 33.7692H109.322L112.704 16.2308ZM115.927 27.7692L114.983 20.9231L114.04 27.7692H115.927Z" fill="#111111"/>
<path d="M123.241 19.1539H120.567V16.2308H129.924V19.0769H127.251V33.7692H123.241V19.1539Z" fill="#111111"/>
<path d="M137.08 16.2308H143.999V18.0769H139.518V23.8461H143.135V25.6154H139.518V32.0769H143.999V33.8462H137.002V16.2308H137.08Z" fill="#111111"/>
<path d="M146.044 16.2308H147.774L152.886 27.8462V16.2308H154.93V33.7692H153.357L148.167 21.7692V33.7692H146.044V16.2308Z" fill="#111111"/>
<path d="M157.289 16.2308H164.209V18.0769H159.726V23.8461H163.344V25.6154H159.726V32.0769H164.209V33.8462H157.289V16.2308Z" fill="#111111"/>
<path d="M166.254 16.2308H169.87C171.293 16.1346 172.708 16.5144 173.881 17.3077C174.746 18 175.139 19.2308 175.139 20.8461C175.139 23.0769 174.431 24.4615 172.937 24.9231L175.453 33.6923H173.016L170.657 25.4615H168.691V33.6923H166.175V16.2308H166.254ZM169.713 23.7692C170.524 23.8346 171.332 23.6165 171.994 23.1538C172.465 22.7692 172.701 22 172.701 20.8461C172.723 20.273 172.643 19.7004 172.465 19.1538C172.288 18.7616 171.985 18.4373 171.601 18.2308C171.059 17.9893 170.464 17.8836 169.87 17.9231H168.77V23.6923H169.713V23.7692Z" fill="#111111"/>
<path d="M178.284 32.4615C177.467 31.1166 177.083 29.5617 177.184 28V22.1538C177.164 21.0391 177.296 19.9268 177.577 18.8462C177.84 18.0386 178.365 17.3367 179.071 16.8462C179.949 16.3377 180.962 16.0967 181.981 16.1538C183.631 16.1538 184.811 16.5385 185.519 17.3846C186.333 18.5019 186.723 19.8624 186.62 21.2308V21.8462H184.261V21.3077C184.264 20.6635 184.211 20.0201 184.104 19.3846C184.037 18.983 183.811 18.6235 183.474 18.3846C183.032 18.1008 182.508 17.9658 181.981 18C181.416 17.9647 180.858 18.1284 180.407 18.4615C180.222 18.614 180.071 18.8018 179.964 19.0134C179.855 19.2251 179.793 19.4561 179.779 19.6923C179.675 20.38 179.622 21.0741 179.621 21.7692V28.3077C179.564 29.3038 179.724 30.3006 180.093 31.2308C180.407 31.8462 181.036 32.0769 181.981 32.0769C182.353 32.1223 182.731 32.0589 183.067 31.8947C183.402 31.7304 183.681 31.4727 183.867 31.1538C184.283 30.1811 184.471 29.1299 184.418 28.0769V26.8462H182.138V25.0769H186.699V33.7692H185.126L184.89 31.7692C184.684 32.4395 184.254 33.0231 183.67 33.4273C183.086 33.8315 182.381 34.0331 181.666 34C181.016 34.0374 180.367 33.9164 179.777 33.6479C179.187 33.3794 178.674 32.9717 178.284 32.4615Z" fill="#111111"/>
<path d="M191.731 27.6154L187.878 16.3077H190.237L192.989 24.7692L195.663 16.3077H198.022L194.168 27.6154V33.7692H191.809V27.6154H191.731Z" fill="#111111"/>
<path d="M6.03205 20.72V18.46C12.6822 17.5423 19.3886 17.0979 26.1012 17.13C26.1012 17.73 26.1012 18.34 26.0415 18.95C27.9495 18.099 29.9546 17.4877 32.0115 17.13C30.7006 13.722 28.3118 10.8412 25.2128 8.93087C22.1136 7.02052 18.4759 6.1864 14.8591 6.55683C11.2423 6.92727 7.84672 8.48172 5.19478 10.9811C2.54284 13.4804 0.781405 16.7863 0.181452 20.39L6.03205 20.72Z" fill="#FDC305"/>
<path d="M27.1038 24.23C25.9496 25.51 25.7208 25.43 25.7208 27.68C25.7208 28.59 25.7208 32.58 25.7208 36.86C28.0018 35.346 29.8744 33.2879 31.1714 30.8694C32.4683 28.4509 33.1492 25.7474 33.1534 23C33.1403 21.9591 33.0337 20.9216 32.835 19.9C30.7736 21.1295 28.8517 22.5814 27.1038 24.23Z" fill="#FDC305"/>
<path d="M6.3282 25.72C6.3282 25.72 2.55715 24.28 1.16415 23.89C0.783131 23.7693 0.394116 23.6757 0 23.61C0.107853 26.496 0.96076 29.3041 2.47495 31.7586C3.98914 34.2131 6.11254 36.2296 8.6366 37.61L6.3282 25.72Z" fill="#FDC305"/>
<path d="M26.1586 17.12C26.199 11.5986 25.7327 6.08528 24.7656 0.65C24.7656 0.65 24.6263 -0.64 23.88 0.41C23.2938 1.65814 22.8917 2.98539 22.686 4.35C18.4491 4.07577 14.1962 4.18957 9.97985 4.69C9.1938 2 7.81075 0.75 7.1441 1C6.47745 1.25 6.4277 4.31 6.4277 4.31L6.09935 18.41C12.7472 17.506 19.4503 17.0749 26.1586 17.12Z" fill="#F06351"/>
<path d="M12.3479 14C12.3479 13.91 13.3429 14.68 13.7509 14.92C14.1588 15.16 14.3579 15.34 14.3579 15.51C14.3579 15.68 14.0892 15.85 13.731 15.85C13.3728 15.85 12.8255 15.73 12.736 15.58H13.6713H13.9598C13.3536 15.1294 12.8113 14.5978 12.3479 14Z" fill="black"/>
<path d="M19.7906 14.11L18.706 15.44C18.706 15.5 18.5369 15.79 18.8851 15.74C19.2972 15.6783 19.7033 15.5812 20.099 15.45C20.2085 15.45 20.1687 15.26 19.9896 15.28C19.8105 15.3 19.303 15.33 18.9946 15.39L19.8304 14.13C19.8304 14.13 19.9 14 19.7906 14.11Z" fill="black"/>
<path d="M16.6663 20.2C17.1274 19.9958 17.5087 19.6443 17.7508 19.2C18.0294 18.55 17.7508 18.29 17.313 18.2C16.7139 18.0902 16.0956 18.2116 15.5817 18.54C15.1937 18.9 15.2434 19.26 15.532 19.54C15.8815 19.8062 16.2625 20.0279 16.6663 20.2Z" fill="black"/>
<path d="M16.2682 21.45C16.1567 21.6785 16.0012 21.8825 15.8105 22.05C15.5272 22.2791 15.1788 22.4122 14.8156 22.43C14.292 22.472 13.7714 22.3189 13.3529 22C13.1561 21.8808 12.9784 21.7324 12.8256 21.56C12.7256 21.4491 12.6036 21.3605 12.4674 21.3C12.4674 21.3 13.2136 25.4 15.0245 26.05C16.8354 26.7 17.1538 25.3 17.2135 24.92C17.2733 23.7851 16.9888 22.6588 16.3976 21.69C16.3777 21.38 16.3677 21.58 16.2682 21.45Z" fill="#F06351"/>
<path d="M14.6365 22.59C14.1741 22.5247 13.7299 22.3651 13.3312 22.1209C12.9325 21.8767 12.5877 21.5531 12.3181 21.17C12.3049 21.157 12.2943 21.1414 12.2872 21.1242C12.28 21.1071 12.2763 21.0886 12.2763 21.07C12.2763 21.0514 12.28 21.0329 12.2872 21.0158C12.2943 20.9986 12.3049 20.983 12.3181 20.97C12.331 20.9567 12.3466 20.9461 12.3637 20.9389C12.3807 20.9317 12.3991 20.928 12.4176 20.928C12.4361 20.928 12.4545 20.9317 12.4715 20.9389C12.4886 20.9461 12.5042 20.9567 12.5171 20.97C13.0194 21.6642 13.7738 22.1313 14.6166 22.27C14.9466 22.245 15.2659 22.1413 15.548 21.9674C15.8301 21.7934 16.0668 21.5544 16.2384 21.27L16.3777 21.08L16.4772 21.29C16.4772 21.29 16.8454 22.05 17.4722 22.09C18.0991 22.13 18.517 21.68 19.0742 20.81C19.0871 20.7967 19.1026 20.7861 19.1197 20.7789C19.1367 20.7717 19.1551 20.768 19.1737 20.768C19.1922 20.768 19.2106 20.7717 19.2276 20.7789C19.2447 20.7861 19.2602 20.7967 19.2732 20.81C19.3053 20.8306 19.3284 20.8629 19.3376 20.9C19.3469 20.9372 19.3416 20.9766 19.3229 21.01C18.6861 22.01 18.0593 22.45 17.4523 22.41C17.2215 22.3763 17.0013 22.2904 16.8082 22.1587C16.6152 22.0271 16.4544 21.8531 16.3379 21.65C16.1422 21.9245 15.8878 22.1514 15.5933 22.3141C15.2989 22.4767 14.9719 22.571 14.6365 22.59Z" fill="black"/>
<path d="M26.1088 18.92C24.3223 20.5437 22.6374 22.277 21.0641 24.11C19.5006 25.9361 17.7347 27.5768 15.8006 29C15.5817 28.47 14.1887 27.49 14.1887 27.49C14.1887 27.49 11.0744 25.35 9.0346 23.67C7.93427 22.7373 6.89406 21.7353 5.92025 20.67L3.93025 20.56C6.80598 24.7655 11.0148 27.8676 15.8703 29.36C16.726 29.22 19.1239 27.5 20.9149 26.1C23.0232 24.2819 24.9984 22.3134 26.8252 20.21C27.3252 19.621 27.7101 18.9425 27.9595 18.21C26.865 18.6 26.1088 18.92 26.1088 18.92Z" fill="#F06351"/>
</g>
<defs>
<clipPath id="clip0">
<rect width="199" height="38" fill="white"/>
</clipPath>
</defs>
</svg>
